<?xml version="1.0" standalone="no"?>
<!DOCTYPE svg PUBLIC "-//W3C//DTD SVG 20010904//EN"
 "http://www.w3.org/TR/2001/REC-SVG-20010904/DTD/svg10.dtd">
<svg version="1.0" xmlns="http://www.w3.org/2000/svg"
 width="128.000000pt" height="128.000000pt" viewBox="0 0 128.000000 128.000000"
 preserveAspectRatio="xMidYMid meet">

<g transform="translate(0.000000,128.000000) scale(0.100000,-0.100000)"
fill="#000000" stroke="none">
<path d="M412 1269 c-150 -25 -299 -171 -318 -312 -5 -34 -13 -47 -40 -65 -22
-14 -36 -34 -43 -59 -14 -49 -14 -297 -1 -345 14 -48 56 -78 108 -78 34 0 44
-5 63 -31 33 -47 73 -59 191 -59 141 1 176 17 218 99 40 81 58 81 102 -1 49
-90 71 -100 231 -96 l129 3 33 37 c27 29 42 37 77 40 l43 3 0 -81 c-1 -88 -13
-119 -62 -151 -22 -15 -55 -19 -185 -21 l-158 -4 0 25 c0 57 -1 57 -156 57
-169 0 -164 4 -164 -119 0 -111 -1 -111 165 -111 123 0 135 2 145 19 5 11 10
29 10 40 0 18 8 20 173 23 169 3 175 4 214 30 22 15 51 44 64 65 24 37 24 42
27 340 3 331 2 340 -56 382 -21 15 -31 31 -35 60 -13 99 -103 223 -195 270
-82 42 -145 51 -342 50 -102 -1 -209 -5 -238 -10z m623 -729 l0 -135 -119 -3
c-133 -3 -136 -2 -171 67 -33 65 -59 86 -106 85 -46 -2 -73 -22 -101 -79 -38
-75 -38 -75 -169 -75 -107 0 -119 2 -129 19 -13 25 -13 201 0 235 l10 26 392
-2 393 -3 0 -135z"/>
</g>
</svg>
